<svg width="34" height="20" viewBox="0 0 34 20" fill="none" xmlns="http://www.w3.org/2000/svg">
<g clip-path="url(#clip0_2162_14521)">
<path fill-rule="evenodd" clip-rule="evenodd" d="M6.51172 16.3875V7.35877L7.69314 4.12734L7.69903 4.11133H12.0281C13.6509 4.11133 14.9089 4.48784 15.802 5.24088C16.6952 5.99391 17.1417 7.05341 17.1417 8.4194C17.1417 9.34168 16.9549 10.1385 16.5813 10.8098C16.2077 11.4811 15.6649 12.0036 14.9527 12.3772L17.5095 16.3875H13.8844L12.0982 12.9901H9.71644V16.3875H6.51172ZM9.71644 10.4333H12.0456C12.6994 10.4333 13.2043 10.2699 13.5605 9.94299C13.9165 9.61607 14.0946 9.14321 14.0946 8.52447C14.0946 7.92905 13.9165 7.47079 13.5605 7.14976C13.2043 6.82867 12.6994 6.66813 12.0456 6.66813H9.71644V10.4333ZM22.9361 16.4926C23.8117 16.4926 24.5968 16.3495 25.2915 16.0636C25.9862 15.7775 26.5787 15.3601 27.069 14.8114L25.4404 13.1828C25.1252 13.498 24.7778 13.7373 24.3984 13.9007C24.019 14.0642 23.6249 14.1459 23.2163 14.1459C22.6793 14.1459 22.2239 14.0029 21.8503 13.7169C21.4768 13.4308 21.2141 13.0193 21.0623 12.4823H27.647C27.6586 12.3538 27.6645 12.167 27.6645 11.9218C27.6645 10.334 27.25 9.08484 26.4211 8.17422C25.5922 7.26355 24.4071 6.80823 22.8661 6.80823C21.8854 6.80823 21.0214 7.00965 20.2743 7.41243C19.527 7.81521 18.9491 8.38725 18.5405 9.1286C18.1319 9.86996 17.9276 10.7252 17.9276 11.6942C17.9276 12.6515 18.129 13.4921 18.5318 14.216C18.9345 14.9398 19.5153 15.5002 20.2743 15.8972C21.0331 16.2941 21.9204 16.4926 22.9361 16.4926ZM20.9922 10.8186H24.6348C24.6348 10.2699 24.4743 9.82915 24.1532 9.4964C23.8322 9.16365 23.4089 8.99727 22.8836 8.99727C22.3933 8.99727 21.9817 9.16076 21.649 9.48762C21.3163 9.81454 21.0974 10.2582 20.9922 10.8186Z" fill="#F2F4F9"/>
<path d="M5.12613 3.58346C5.70469 2.00095 7.21073 0.947266 8.89503 0.947266H28.8532C31.6405 0.947266 33.5786 3.7194 32.6214 6.33723L28.9053 16.5016C28.3268 18.0838 26.8216 19.1362 25.137 19.1362H5.17882C2.39152 19.1362 0.453437 16.364 1.41055 13.7462L5.12613 3.58346Z" stroke="#F2F4F9" stroke-width="1.6049"/>
</g>
<defs>
<clipPath id="clip0_2162_14521">
<rect width="33.4021" height="20" fill="white" transform="translate(0.298828)"/>
</clipPath>
</defs>
</svg>
